# xmcd
#
# Track frame offsets:
#	150
#	21070
#	40558
#	56240
#	67552
#	83294
#	103518
#	124901
#	144543
#	154071
#	178445
#	192775
#
# Disc length: 2781 seconds
#
# Revision: 1
# Processed by: cddbd v1.5.2PL0 Copyright (c) Steve Scherf et al.
# Submitted via: audiograbber 1.83.01
#
DISCID=940adb0c
DTITLE=Rob Parker - Sweet Dreams ... Surrounded By Stars
DYEAR=1900
DGENRE=Country
TTITLE0=Sweet Dreams
TTITLE1=Don't You Ever Get Tired Of Hurting Me
TTITLE2=Storms Never Last
TTITLE3=My Window Faces The South
TTITLE4=Song For Sarah
TTITLE5=A Way To Survive
TTITLE6=There's A Star Spangled Banner Waving Somewhere
TTITLE7=I Love You So Much It Hurts Me
TTITLE8=Columbus Stockade Blues
TTITLE9=Sweet Memories
TTITLE10=Bouquet Of Roses
TTITLE11=I've Just Destroyed The World I'm Living In
EXTD=
EXTT0=
EXTT1=
EXTT2=
EXTT3=
EXTT4=
EXTT5=
EXTT6=
EXTT7=
EXTT8=
EXTT9=
EXTT10=
EXTT11=
PLAYORDER=
